<?xml version="1.0" encoding="UTF-8" standalone="no"?>
<!DOCTYPE svg PUBLIC "-//W3C//DTD SVG 1.1//EN"
 "http://www.w3.org/Graphics/SVG/1.1/DTD/svg11.dtd">
<!-- Generated by graphviz version 3.0.0 (20220226.1711)
 -->
<!-- Title: line_sender_c_api Pages: 1 -->
<svg width="861pt" height="525pt"
 viewBox="0.00 0.00 860.50 525.00" xmlns="http://www.w3.org/2000/svg" xmlns:xlink="http://www.w3.org/1999/xlink">
<g id="graph0" class="graph" transform="scale(1 1) rotate(0) translate(4 521)">
<title>line_sender_c_api</title>
<!-- line_sender_connect -->
<g id="node1" class="node">
<title>line_sender_connect</title>
<polygon fill="#343942" stroke="black" points="852.5,-517 555.5,-517 555.5,-481 852.5,-481 852.5,-517"/>
<text text-anchor="middle" x="704" y="-495.3" font-family="monospace" font-size="14.00" fill="#c9d1d9">line_sender_connect(opts, err_out)</text>
</g>
<!-- line_sender_table -->
<g id="node2" class="node">
<title>line_sender_table</title>
<polygon fill="#343942" stroke="black" points="789,-445 393,-445 393,-409 789,-409 789,-445"/>
<text text-anchor="middle" x="591" y="-423.3" font-family="monospace" font-size="14.00" fill="#c9d1d9">line_sender_table(sender, table_name, err_out)</text>
</g>
<!-- line_sender_connect&#45;&gt;line_sender_table -->
<g id="edge1" class="edge">
<title>line_sender_connect&#45;&gt;line_sender_table</title>
<path fill="none" stroke="#343942" d="M676.36,-480.88C661.58,-471.72 643.21,-460.34 627.3,-450.48"/>
<polygon fill="#343942" stroke="#343942" points="629.09,-447.48 618.75,-445.19 625.41,-453.43 629.09,-447.48"/>
</g>
<!-- line_sender_close -->
<g id="node3" class="node">
<title>line_sender_close</title>
<polygon fill="#343942" stroke="black" points="839.5,-36 616.5,-36 616.5,0 839.5,0 839.5,-36"/>
<text text-anchor="middle" x="728" y="-14.3" font-family="monospace" font-size="14.00" fill="#c9d1d9">line_sender_close(sender)</text>
</g>
<!-- line_sender_connect&#45;&gt;line_sender_close -->
<g id="edge2" class="edge">
<title>line_sender_connect&#45;&gt;line_sender_close</title>
<path fill="none" stroke="#343942" d="M751.37,-480.98C768.44,-472.61 786.35,-460.85 798,-445 821.96,-412.41 817,-396.45 817,-356 817,-356 817,-356 817,-162 817,-121.12 819.9,-106.52 798,-72 790.52,-60.2 779.42,-50.06 768.26,-41.9"/>
<polygon fill="#343942" stroke="#343942" points="769.99,-38.84 759.77,-36.05 766.02,-44.61 769.99,-38.84"/>
</g>
<!-- line_sender_symbol -->
<g id="node4" class="node">
<title>line_sender_symbol</title>
<polygon fill="#343942" stroke="black" points="625.5,-373 212.5,-373 212.5,-337 625.5,-337 625.5,-373"/>
<text text-anchor="middle" x="419" y="-351.3" font-family="monospace" font-size="14.00" fill="#c9d1d9">line_sender_symbol(sender, name, value, err_out)</text>
</g>
<!-- line_sender_table&#45;&gt;line_sender_symbol -->
<g id="edge3" class="edge">
<title>line_sender_table&#45;&gt;line_sender_symbol</title>
<path fill="none" stroke="#343942" d="M548.92,-408.88C525.2,-399.22 495.38,-387.09 470.3,-376.88"/>
<polygon fill="#343942" stroke="#343942" points="471.52,-373.6 460.94,-373.07 468.88,-380.08 471.52,-373.6"/>
</g>
<!-- line_sender_column -->
<g id="node5" class="node">
<title>line_sender_column</title>
<polygon fill="#343942" stroke="black" points="454,-301 0,-301 0,-218 454,-218 454,-301"/>
<text text-anchor="middle" x="227" y="-285.8" font-family="monospace" font-size="14.00" fill="#c9d1d9">line_sender_column_bool(sender, name, value, err_out)</text>
<text text-anchor="middle" x="227" y="-270.8" font-family="monospace" font-size="14.00" fill="#c9d1d9">line_sender_column_i64(sender, name, value, err_out)</text>
<text text-anchor="middle" x="227" y="-255.8" font-family="monospace" font-size="14.00" fill="#c9d1d9">line_sender_column_f64(sender, name, value, err_out)</text>
<text text-anchor="middle" x="227" y="-240.8" font-family="monospace" font-size="14.00" fill="#c9d1d9">line_sender_column_str(sender, name, value, err_out)</text>
<text text-anchor="middle" x="227" y="-225.8" font-family="monospace" font-size="14.00" fill="#c9d1d9">line_sender_column_ts(sender, name, micros, err_out)</text>
</g>
<!-- line_sender_table&#45;&gt;line_sender_column -->
<g id="edge7" class="edge">
<title>line_sender_table&#45;&gt;line_sender_column</title>
<path fill="none" stroke="#343942" d="M392.8,-422.42C310.85,-416.35 228.9,-402.68 203,-373 188.13,-355.96 191.11,-331.98 199.06,-310.54"/>
<polygon fill="#343942" stroke="#343942" points="202.33,-311.8 202.88,-301.22 195.85,-309.15 202.33,-311.8"/>
</g>
<!-- line_sender_symbol&#45;&gt;line_sender_symbol -->
<g id="edge4" class="edge">
<title>line_sender_symbol&#45;&gt;line_sender_symbol</title>
<path fill="none" stroke="#343942" d="M625.63,-363.99C636.84,-361.79 643.5,-358.8 643.5,-355 643.5,-352.51 640.63,-350.36 635.49,-348.56"/>
<polygon fill="#343942" stroke="#343942" points="636.19,-345.12 625.63,-346.01 634.44,-351.9 636.19,-345.12"/>
</g>
<!-- line_sender_symbol&#45;&gt;line_sender_column -->
<g id="edge5" class="edge">
<title>line_sender_symbol&#45;&gt;line_sender_column</title>
<path fill="none" stroke="#343942" d="M383.78,-336.85C365.53,-327.96 342.29,-316.65 319.34,-305.47"/>
<polygon fill="#343942" stroke="#343942" points="320.75,-302.26 310.22,-301.03 317.68,-308.55 320.75,-302.26"/>
</g>
<!-- line_sender_at -->
<g id="node6" class="node">
<title>line_sender_at</title>
<polygon fill="#343942" stroke="black" points="681.5,-182 318.5,-182 318.5,-144 681.5,-144 681.5,-182"/>
<text text-anchor="middle" x="500" y="-166.8" font-family="monospace" font-size="14.00" fill="#c9d1d9">line_sender_at(sender, timestamp, err_out)</text>
<text text-anchor="middle" x="500" y="-151.8" font-family="monospace" font-size="14.00" fill="#c9d1d9">line_sender_at_now(sender, err_out)</text>
</g>
<!-- line_sender_symbol&#45;&gt;line_sender_at -->
<g id="edge6" class="edge">
<title>line_sender_symbol&#45;&gt;line_sender_at</title>
<path fill="none" stroke="#343942" d="M446.95,-336.95C459.41,-327.85 473.05,-315.53 481,-301 499.6,-267 502.3,-221.43 501.75,-192.38"/>
<polygon fill="#343942" stroke="#343942" points="505.24,-191.99 501.41,-182.11 498.25,-192.22 505.24,-191.99"/>
</g>
<!-- line_sender_column&#45;&gt;line_sender_column -->
<g id="edge8" class="edge">
<title>line_sender_column&#45;&gt;line_sender_column</title>
<path fill="none" stroke="#343942" d="M454.16,-270.83C465.39,-268 472,-264.23 472,-259.5 472,-256.4 469.15,-253.7 464.02,-251.42"/>
<polygon fill="#343942" stroke="#343942" points="464.76,-247.98 454.16,-248.17 462.57,-254.63 464.76,-247.98"/>
</g>
<!-- line_sender_column&#45;&gt;line_sender_at -->
<g id="edge9" class="edge">
<title>line_sender_column&#45;&gt;line_sender_at</title>
<path fill="none" stroke="#343942" d="M344.36,-217.88C376.68,-206.69 410.46,-195 438.26,-185.37"/>
<polygon fill="#343942" stroke="#343942" points="439.52,-188.64 447.83,-182.06 437.23,-182.02 439.52,-188.64"/>
</g>
<!-- line_sender_at&#45;&gt;line_sender_table -->
<g id="edge12" class="edge">
<title>line_sender_at&#45;&gt;line_sender_table</title>
<path fill="none" stroke="#343942" d="M524.78,-182.14C561.09,-210.43 627.22,-268.94 653,-337 658.67,-351.96 659.7,-358.47 653,-373 647.68,-384.56 638.45,-394.53 628.72,-402.6"/>
<polygon fill="#343942" stroke="#343942" points="626.29,-400.06 620.5,-408.94 630.56,-405.61 626.29,-400.06"/>
</g>
<!-- line_sender_flush -->
<g id="node7" class="node">
<title>line_sender_flush</title>
<polygon fill="#343942" stroke="black" points="788.5,-108 491.5,-108 491.5,-72 788.5,-72 788.5,-108"/>
<text text-anchor="middle" x="640" y="-86.3" font-family="monospace" font-size="14.00" fill="#c9d1d9">line_sender_flush(sender, err_out)</text>
</g>
<!-- line_sender_at&#45;&gt;line_sender_flush -->
<g id="edge10" class="edge">
<title>line_sender_at&#45;&gt;line_sender_flush</title>
<path fill="none" stroke="#343942" d="M535.69,-143.9C554.43,-134.39 577.54,-122.68 597.23,-112.69"/>
<polygon fill="#343942" stroke="#343942" points="598.97,-115.73 606.3,-108.09 595.8,-109.49 598.97,-115.73"/>
</g>
<!-- line_sender_flush&#45;&gt;line_sender_table -->
<g id="edge13" class="edge">
<title>line_sender_flush&#45;&gt;line_sender_table</title>
<path fill="none" stroke="#343942" d="M663.3,-108.18C673.9,-117.46 685.32,-129.91 691,-144 729.22,-238.84 721.95,-285.53 669,-373 661.5,-385.4 649.86,-395.56 637.84,-403.55"/>
<polygon fill="#343942" stroke="#343942" points="635.73,-400.74 629.07,-408.98 639.42,-406.69 635.73,-400.74"/>
</g>
<!-- line_sender_flush&#45;&gt;line_sender_close -->
<g id="edge11" class="edge">
<title>line_sender_flush&#45;&gt;line_sender_close</title>
<path fill="none" stroke="#343942" d="M661.75,-71.7C672.84,-62.88 686.47,-52.03 698.49,-42.47"/>
<polygon fill="#343942" stroke="#343942" points="700.85,-45.07 706.5,-36.1 696.49,-39.59 700.85,-45.07"/>
</g>
</g>
</svg>
