<?xml version="1.0" encoding="UTF-8" standalone="no"?>
<!DOCTYPE svg PUBLIC "-//W3C//DTD SVG 1.1//EN"
 "http://www.w3.org/Graphics/SVG/1.1/DTD/svg11.dtd">
<!-- Generated by graphviz version 3.0.0 (20220226.1711)
 -->
<!-- Title: line_sender_c_api Pages: 1 -->
<svg width="698pt" height="510pt"
 viewBox="0.00 0.00 698.00 510.00" xmlns="http://www.w3.org/2000/svg" xmlns:xlink="http://www.w3.org/1999/xlink">
<g id="graph0" class="graph" transform="scale(1 1) rotate(0) translate(4 506)">
<title>line_sender_c_api</title>
<polygon fill="white" stroke="transparent" points="-4,4 -4,-506 694,-506 694,4 -4,4"/>
<!-- line_sender_connect -->
<g id="node1" class="node">
<title>line_sender_connect</title>
<polygon fill="none" stroke="black" points="690,-502 368,-502 368,-466 690,-466 690,-502"/>
<text text-anchor="middle" x="529" y="-480.3" font-family="Times New Roman,serif" font-size="14.00">line_sender_connect(net_interface, host, port, err_out)</text>
</g>
<!-- line_sender_table -->
<g id="node2" class="node">
<title>line_sender_table</title>
<polygon fill="none" stroke="black" points="585,-430 307,-430 307,-394 585,-394 585,-430"/>
<text text-anchor="middle" x="446" y="-408.3" font-family="Times New Roman,serif" font-size="14.00">line_sender_table(sender, table_name, err_out)</text>
</g>
<!-- line_sender_connect&#45;&gt;line_sender_table -->
<g id="edge1" class="edge">
<title>line_sender_connect&#45;&gt;line_sender_table</title>
<path fill="none" stroke="black" d="M508.48,-465.7C498.13,-456.97 485.41,-446.24 474.16,-436.75"/>
<polygon fill="black" stroke="black" points="476.18,-433.88 466.28,-430.1 471.67,-439.23 476.18,-433.88"/>
</g>
<!-- line_sender_close -->
<g id="node3" class="node">
<title>line_sender_close</title>
<polygon fill="none" stroke="black" points="628,-36 466,-36 466,0 628,0 628,-36"/>
<text text-anchor="middle" x="547" y="-14.3" font-family="Times New Roman,serif" font-size="14.00">line_sender_close(sender)</text>
</g>
<!-- line_sender_connect&#45;&gt;line_sender_close -->
<g id="edge2" class="edge">
<title>line_sender_connect&#45;&gt;line_sender_close</title>
<path fill="none" stroke="black" d="M557.82,-465.95C570.78,-456.86 585.12,-444.54 594,-430 615.09,-395.49 613,-381.45 613,-341 613,-341 613,-341 613,-162 613,-121.12 612.4,-108.51 594,-72 588.83,-61.74 581.18,-51.91 573.54,-43.57"/>
<polygon fill="black" stroke="black" points="576.05,-41.13 566.6,-36.35 571.01,-45.98 576.05,-41.13"/>
</g>
<!-- line_sender_symbol -->
<g id="node4" class="node">
<title>line_sender_symbol</title>
<polygon fill="none" stroke="black" points="445.5,-358 150.5,-358 150.5,-322 445.5,-322 445.5,-358"/>
<text text-anchor="middle" x="298" y="-336.3" font-family="Times New Roman,serif" font-size="14.00">line_sender_symbol(sender, name, value, err_out)</text>
</g>
<!-- line_sender_table&#45;&gt;line_sender_symbol -->
<g id="edge3" class="edge">
<title>line_sender_table&#45;&gt;line_sender_symbol</title>
<path fill="none" stroke="black" d="M409.8,-393.88C389.74,-384.39 364.63,-372.51 343.29,-362.42"/>
<polygon fill="black" stroke="black" points="344.62,-359.18 334.09,-358.07 341.63,-365.51 344.62,-359.18"/>
</g>
<!-- line_sender_column -->
<g id="node5" class="node">
<title>line_sender_column</title>
<polygon fill="none" stroke="black" points="328,-286 0,-286 0,-218 328,-218 328,-286"/>
<text text-anchor="middle" x="164" y="-270.8" font-family="Times New Roman,serif" font-size="14.00">line_sender_column_bool(sender, name, value, err_out)</text>
<text text-anchor="middle" x="164" y="-255.8" font-family="Times New Roman,serif" font-size="14.00">line_sender_column_i64(sender, name, value, err_out)</text>
<text text-anchor="middle" x="164" y="-240.8" font-family="Times New Roman,serif" font-size="14.00">line_sender_column_f64(sender, name, value, err_out)</text>
<text text-anchor="middle" x="164" y="-225.8" font-family="Times New Roman,serif" font-size="14.00">line_sender_column_str(sender, name, value, err_out)</text>
</g>
<!-- line_sender_table&#45;&gt;line_sender_column -->
<g id="edge7" class="edge">
<title>line_sender_table&#45;&gt;line_sender_column</title>
<path fill="none" stroke="black" d="M306.79,-403.92C237.02,-397.15 162.8,-383.91 141,-358 126.52,-340.79 130.77,-316.5 139.33,-295.63"/>
<polygon fill="black" stroke="black" points="142.61,-296.87 143.52,-286.31 136.23,-294 142.61,-296.87"/>
</g>
<!-- line_sender_symbol&#45;&gt;line_sender_symbol -->
<g id="edge4" class="edge">
<title>line_sender_symbol&#45;&gt;line_sender_symbol</title>
<path fill="none" stroke="black" d="M445.66,-350.07C456.71,-347.82 463.5,-344.46 463.5,-340 463.5,-337.07 460.58,-334.62 455.44,-332.64"/>
<polygon fill="black" stroke="black" points="456.23,-329.23 445.66,-329.93 454.36,-335.97 456.23,-329.23"/>
</g>
<!-- line_sender_symbol&#45;&gt;line_sender_column -->
<g id="edge5" class="edge">
<title>line_sender_symbol&#45;&gt;line_sender_column</title>
<path fill="none" stroke="black" d="M271.21,-321.8C257.61,-313.08 240.52,-302.11 223.99,-291.5"/>
<polygon fill="black" stroke="black" points="225.73,-288.46 215.43,-286.01 221.95,-294.35 225.73,-288.46"/>
</g>
<!-- line_sender_at -->
<g id="node6" class="node">
<title>line_sender_at</title>
<polygon fill="none" stroke="black" points="501.5,-182 246.5,-182 246.5,-144 501.5,-144 501.5,-182"/>
<text text-anchor="middle" x="374" y="-166.8" font-family="Times New Roman,serif" font-size="14.00">line_sender_at(sender, timestamp, err_out)</text>
<text text-anchor="middle" x="374" y="-151.8" font-family="Times New Roman,serif" font-size="14.00">line_sender_at_now(sender, err_out)</text>
</g>
<!-- line_sender_symbol&#45;&gt;line_sender_at -->
<g id="edge6" class="edge">
<title>line_sender_symbol&#45;&gt;line_sender_at</title>
<path fill="none" stroke="black" d="M323.02,-321.91C334.61,-312.65 347.46,-300.2 355,-286 370.57,-256.68 374.25,-218.18 374.74,-192.34"/>
<polygon fill="black" stroke="black" points="378.24,-192.12 374.77,-182.11 371.24,-192.1 378.24,-192.12"/>
</g>
<!-- line_sender_column&#45;&gt;line_sender_column -->
<g id="edge8" class="edge">
<title>line_sender_column&#45;&gt;line_sender_column</title>
<path fill="none" stroke="black" d="M328.07,-263.91C339.22,-261.17 346,-257.2 346,-252 346,-248.59 343.08,-245.71 337.92,-243.35"/>
<polygon fill="black" stroke="black" points="338.67,-239.91 328.07,-240.09 336.46,-246.56 338.67,-239.91"/>
</g>
<!-- line_sender_column&#45;&gt;line_sender_at -->
<g id="edge9" class="edge">
<title>line_sender_column&#45;&gt;line_sender_at</title>
<path fill="none" stroke="black" d="M243.69,-217.98C269.59,-207.25 297.68,-195.62 321.13,-185.91"/>
<polygon fill="black" stroke="black" points="322.63,-189.07 330.53,-182.01 319.95,-182.6 322.63,-189.07"/>
</g>
<!-- line_sender_at&#45;&gt;line_sender_table -->
<g id="edge12" class="edge">
<title>line_sender_at&#45;&gt;line_sender_table</title>
<path fill="none" stroke="black" d="M390.35,-182.24C414.03,-210.02 456.82,-265.69 473,-322 477.42,-337.38 476.73,-342.44 473,-358 470.79,-367.19 466.71,-376.59 462.38,-384.87"/>
<polygon fill="black" stroke="black" points="459.28,-383.23 457.47,-393.67 465.4,-386.64 459.28,-383.23"/>
</g>
<!-- line_sender_flush -->
<g id="node7" class="node">
<title>line_sender_flush</title>
<polygon fill="none" stroke="black" points="585,-108 377,-108 377,-72 585,-72 585,-108"/>
<text text-anchor="middle" x="481" y="-86.3" font-family="Times New Roman,serif" font-size="14.00">line_sender_flush(sender, err_out)</text>
</g>
<!-- line_sender_at&#45;&gt;line_sender_flush -->
<g id="edge10" class="edge">
<title>line_sender_at&#45;&gt;line_sender_flush</title>
<path fill="none" stroke="black" d="M401.28,-143.9C415.15,-134.7 432.14,-123.42 446.87,-113.64"/>
<polygon fill="black" stroke="black" points="448.85,-116.53 455.25,-108.09 444.98,-110.7 448.85,-116.53"/>
</g>
<!-- line_sender_flush&#45;&gt;line_sender_table -->
<g id="edge13" class="edge">
<title>line_sender_flush&#45;&gt;line_sender_table</title>
<path fill="none" stroke="black" d="M493.73,-108.15C500.29,-118.08 507.61,-131.12 511,-144 515.3,-160.33 512.1,-165.15 511,-182 505.88,-260.72 518.72,-285.34 488,-358 483.7,-368.16 476.9,-378 470.01,-386.39"/>
<polygon fill="black" stroke="black" points="467.37,-384.1 463.46,-393.95 472.66,-388.69 467.37,-384.1"/>
</g>
<!-- line_sender_flush&#45;&gt;line_sender_close -->
<g id="edge11" class="edge">
<title>line_sender_flush&#45;&gt;line_sender_close</title>
<path fill="none" stroke="black" d="M497.31,-71.7C505.31,-63.22 515.07,-52.86 523.82,-43.58"/>
<polygon fill="black" stroke="black" points="526.56,-45.78 530.87,-36.1 521.47,-40.98 526.56,-45.78"/>
</g>
</g>
</svg>
