<?xml version="1.0" encoding="UTF-8" standalone="no"?>
<!DOCTYPE svg PUBLIC "-//W3C//DTD SVG 1.1//EN"
 "http://www.w3.org/Graphics/SVG/1.1/DTD/svg11.dtd">
<!-- Generated by graphviz version 3.0.0 (20220226.1711)
 -->
<!-- Title: line_sender_c_api Pages: 1 -->
<svg width="861pt" height="510pt"
 viewBox="0.00 0.00 860.50 510.00" xmlns="http://www.w3.org/2000/svg" xmlns:xlink="http://www.w3.org/1999/xlink">
<g id="graph0" class="graph" transform="scale(1 1) rotate(0) translate(4 506)">
<title>line_sender_c_api</title>
<!-- line_sender_connect -->
<g id="node1" class="node">
<title>line_sender_connect</title>
<polygon fill="#343942" stroke="black" points="852.5,-502 555.5,-502 555.5,-466 852.5,-466 852.5,-502"/>
<text text-anchor="middle" x="704" y="-480.3" font-family="monospace" font-size="14.00" fill="#c9d1d9">line_sender_connect(opts, err_out)</text>
</g>
<!-- line_sender_table -->
<g id="node2" class="node">
<title>line_sender_table</title>
<polygon fill="#343942" stroke="black" points="789,-430 393,-430 393,-394 789,-394 789,-430"/>
<text text-anchor="middle" x="591" y="-408.3" font-family="monospace" font-size="14.00" fill="#c9d1d9">line_sender_table(sender, table_name, err_out)</text>
</g>
<!-- line_sender_connect&#45;&gt;line_sender_table -->
<g id="edge1" class="edge">
<title>line_sender_connect&#45;&gt;line_sender_table</title>
<path fill="none" stroke="#343942" d="M676.36,-465.88C661.58,-456.72 643.21,-445.34 627.3,-435.48"/>
<polygon fill="#343942" stroke="#343942" points="629.09,-432.48 618.75,-430.19 625.41,-438.43 629.09,-432.48"/>
</g>
<!-- line_sender_close -->
<g id="node3" class="node">
<title>line_sender_close</title>
<polygon fill="#343942" stroke="black" points="839.5,-36 616.5,-36 616.5,0 839.5,0 839.5,-36"/>
<text text-anchor="middle" x="728" y="-14.3" font-family="monospace" font-size="14.00" fill="#c9d1d9">line_sender_close(sender)</text>
</g>
<!-- line_sender_connect&#45;&gt;line_sender_close -->
<g id="edge2" class="edge">
<title>line_sender_connect&#45;&gt;line_sender_close</title>
<path fill="none" stroke="#343942" d="M751.37,-465.98C768.44,-457.61 786.35,-445.85 798,-430 821.96,-397.41 817,-381.45 817,-341 817,-341 817,-341 817,-162 817,-121.12 819.9,-106.52 798,-72 790.52,-60.2 779.42,-50.06 768.26,-41.9"/>
<polygon fill="#343942" stroke="#343942" points="769.99,-38.84 759.77,-36.05 766.02,-44.61 769.99,-38.84"/>
</g>
<!-- line_sender_symbol -->
<g id="node4" class="node">
<title>line_sender_symbol</title>
<polygon fill="#343942" stroke="black" points="625.5,-358 212.5,-358 212.5,-322 625.5,-322 625.5,-358"/>
<text text-anchor="middle" x="419" y="-336.3" font-family="monospace" font-size="14.00" fill="#c9d1d9">line_sender_symbol(sender, name, value, err_out)</text>
</g>
<!-- line_sender_table&#45;&gt;line_sender_symbol -->
<g id="edge3" class="edge">
<title>line_sender_table&#45;&gt;line_sender_symbol</title>
<path fill="none" stroke="#343942" d="M548.92,-393.88C525.2,-384.22 495.38,-372.09 470.3,-361.88"/>
<polygon fill="#343942" stroke="#343942" points="471.52,-358.6 460.94,-358.07 468.88,-365.08 471.52,-358.6"/>
</g>
<!-- line_sender_column -->
<g id="node5" class="node">
<title>line_sender_column</title>
<polygon fill="#343942" stroke="black" points="454,-286 0,-286 0,-218 454,-218 454,-286"/>
<text text-anchor="middle" x="227" y="-270.8" font-family="monospace" font-size="14.00" fill="#c9d1d9">line_sender_column_bool(sender, name, value, err_out)</text>
<text text-anchor="middle" x="227" y="-255.8" font-family="monospace" font-size="14.00" fill="#c9d1d9">line_sender_column_i64(sender, name, value, err_out)</text>
<text text-anchor="middle" x="227" y="-240.8" font-family="monospace" font-size="14.00" fill="#c9d1d9">line_sender_column_f64(sender, name, value, err_out)</text>
<text text-anchor="middle" x="227" y="-225.8" font-family="monospace" font-size="14.00" fill="#c9d1d9">line_sender_column_str(sender, name, value, err_out)</text>
</g>
<!-- line_sender_table&#45;&gt;line_sender_column -->
<g id="edge7" class="edge">
<title>line_sender_table&#45;&gt;line_sender_column</title>
<path fill="none" stroke="#343942" d="M392.8,-407.42C310.85,-401.35 228.9,-387.68 203,-358 188.18,-341.02 192.64,-316.75 201.5,-295.82"/>
<polygon fill="#343942" stroke="#343942" points="204.8,-297.02 205.83,-286.48 198.45,-294.08 204.8,-297.02"/>
</g>
<!-- line_sender_symbol&#45;&gt;line_sender_symbol -->
<g id="edge4" class="edge">
<title>line_sender_symbol&#45;&gt;line_sender_symbol</title>
<path fill="none" stroke="#343942" d="M625.63,-348.99C636.84,-346.79 643.5,-343.8 643.5,-340 643.5,-337.51 640.63,-335.36 635.49,-333.56"/>
<polygon fill="#343942" stroke="#343942" points="636.19,-330.12 625.63,-331.01 634.44,-336.9 636.19,-330.12"/>
</g>
<!-- line_sender_symbol&#45;&gt;line_sender_column -->
<g id="edge5" class="edge">
<title>line_sender_symbol&#45;&gt;line_sender_column</title>
<path fill="none" stroke="#343942" d="M380.61,-321.8C360.33,-312.72 334.6,-301.2 310.03,-290.19"/>
<polygon fill="#343942" stroke="#343942" points="311.24,-286.9 300.69,-286.01 308.38,-293.29 311.24,-286.9"/>
</g>
<!-- line_sender_at -->
<g id="node6" class="node">
<title>line_sender_at</title>
<polygon fill="#343942" stroke="black" points="681.5,-182 318.5,-182 318.5,-144 681.5,-144 681.5,-182"/>
<text text-anchor="middle" x="500" y="-166.8" font-family="monospace" font-size="14.00" fill="#c9d1d9">line_sender_at(sender, timestamp, err_out)</text>
<text text-anchor="middle" x="500" y="-151.8" font-family="monospace" font-size="14.00" fill="#c9d1d9">line_sender_at_now(sender, err_out)</text>
</g>
<!-- line_sender_symbol&#45;&gt;line_sender_at -->
<g id="edge6" class="edge">
<title>line_sender_symbol&#45;&gt;line_sender_at</title>
<path fill="none" stroke="#343942" d="M446.85,-321.89C459.28,-312.78 472.93,-300.47 481,-286 497.18,-257.01 500.74,-218.44 501.02,-192.5"/>
<polygon fill="#343942" stroke="#343942" points="504.52,-192.2 500.97,-182.22 497.52,-192.24 504.52,-192.2"/>
</g>
<!-- line_sender_column&#45;&gt;line_sender_column -->
<g id="edge8" class="edge">
<title>line_sender_column&#45;&gt;line_sender_column</title>
<path fill="none" stroke="#343942" d="M454.16,-262.61C465.39,-259.96 472,-256.43 472,-252 472,-249.1 469.15,-246.57 464.02,-244.44"/>
<polygon fill="#343942" stroke="#343942" points="464.75,-241 454.16,-241.39 462.69,-247.69 464.75,-241"/>
</g>
<!-- line_sender_column&#45;&gt;line_sender_at -->
<g id="edge9" class="edge">
<title>line_sender_column&#45;&gt;line_sender_at</title>
<path fill="none" stroke="#343942" d="M330.6,-217.98C365.17,-206.97 402.74,-195 433.69,-185.13"/>
<polygon fill="#343942" stroke="#343942" points="435.03,-188.38 443.49,-182.01 432.9,-181.71 435.03,-188.38"/>
</g>
<!-- line_sender_at&#45;&gt;line_sender_table -->
<g id="edge12" class="edge">
<title>line_sender_at&#45;&gt;line_sender_table</title>
<path fill="none" stroke="#343942" d="M527.78,-182.17C564.57,-208.1 627.71,-259.53 653,-322 659,-336.83 659.7,-343.47 653,-358 647.68,-369.56 638.45,-379.53 628.72,-387.6"/>
<polygon fill="#343942" stroke="#343942" points="626.29,-385.06 620.5,-393.94 630.56,-390.61 626.29,-385.06"/>
</g>
<!-- line_sender_flush -->
<g id="node7" class="node">
<title>line_sender_flush</title>
<polygon fill="#343942" stroke="black" points="788.5,-108 491.5,-108 491.5,-72 788.5,-72 788.5,-108"/>
<text text-anchor="middle" x="640" y="-86.3" font-family="monospace" font-size="14.00" fill="#c9d1d9">line_sender_flush(sender, err_out)</text>
</g>
<!-- line_sender_at&#45;&gt;line_sender_flush -->
<g id="edge10" class="edge">
<title>line_sender_at&#45;&gt;line_sender_flush</title>
<path fill="none" stroke="#343942" d="M535.69,-143.9C554.43,-134.39 577.54,-122.68 597.23,-112.69"/>
<polygon fill="#343942" stroke="#343942" points="598.97,-115.73 606.3,-108.09 595.8,-109.49 598.97,-115.73"/>
</g>
<!-- line_sender_flush&#45;&gt;line_sender_table -->
<g id="edge13" class="edge">
<title>line_sender_flush&#45;&gt;line_sender_table</title>
<path fill="none" stroke="#343942" d="M663.3,-108.18C673.9,-117.46 685.32,-129.91 691,-144 726.74,-232.68 718.91,-276.45 669,-358 661.44,-370.36 649.78,-380.51 637.76,-388.5"/>
<polygon fill="#343942" stroke="#343942" points="635.65,-385.69 629,-393.94 639.34,-391.64 635.65,-385.69"/>
</g>
<!-- line_sender_flush&#45;&gt;line_sender_close -->
<g id="edge11" class="edge">
<title>line_sender_flush&#45;&gt;line_sender_close</title>
<path fill="none" stroke="#343942" d="M661.75,-71.7C672.84,-62.88 686.47,-52.03 698.49,-42.47"/>
<polygon fill="#343942" stroke="#343942" points="700.85,-45.07 706.5,-36.1 696.49,-39.59 700.85,-45.07"/>
</g>
</g>
</svg>
