<?xml version="1.0" encoding="UTF-8" standalone="no"?>
<!DOCTYPE svg PUBLIC "-//W3C//DTD SVG 1.1//EN"
 "http://www.w3.org/Graphics/SVG/1.1/DTD/svg11.dtd">
<!-- Generated by graphviz version 3.0.0 (20220226.1711)
 -->
<!-- Title: line_sender_cpp_api Pages: 1 -->
<svg width="438pt" height="550pt"
 viewBox="0.00 0.00 437.50 550.00" xmlns="http://www.w3.org/2000/svg" xmlns:xlink="http://www.w3.org/1999/xlink">
<g id="graph0" class="graph" transform="scale(1 1) rotate(0) translate(4 546)">
<title>line_sender_cpp_api</title>
<polygon fill="white" stroke="transparent" points="-4,4 -4,-546 433.5,-546 433.5,4 -4,4"/>
<!-- line_sender -->
<g id="node1" class="node">
<title>line_sender</title>
<polygon fill="none" stroke="black" points="429.5,-542 162.5,-542 162.5,-506 429.5,-506 429.5,-542"/>
<text text-anchor="middle" x="296" y="-520.3" font-family="Times New Roman,serif" font-size="14.00">line_sender::line_sender(host, port, interface)</text>
</g>
<!-- table -->
<g id="node2" class="node">
<title>table</title>
<polygon fill="none" stroke="black" points="262.5,-470 177.5,-470 177.5,-434 262.5,-434 262.5,-470"/>
<text text-anchor="middle" x="220" y="-448.3" font-family="Times New Roman,serif" font-size="14.00">.table(name)</text>
</g>
<!-- line_sender&#45;&gt;table -->
<g id="edge1" class="edge">
<title>line_sender&#45;&gt;table</title>
<path fill="none" stroke="black" d="M277.21,-505.7C267.83,-497.05 256.32,-486.45 246.09,-477.03"/>
<polygon fill="black" stroke="black" points="248.3,-474.3 238.57,-470.1 243.55,-479.45 248.3,-474.3"/>
</g>
<!-- close -->
<g id="node3" class="node">
<title>close</title>
<polygon fill="none" stroke="black" points="297.5,-108 238.5,-108 238.5,-72 297.5,-72 297.5,-108"/>
<text text-anchor="middle" x="268" y="-86.3" font-family="Times New Roman,serif" font-size="14.00">.close()</text>
</g>
<!-- line_sender&#45;&gt;close -->
<g id="edge2" class="edge">
<title>line_sender&#45;&gt;close</title>
<path fill="none" stroke="black" d="M296,-505.95C296,-479.29 296,-426.11 296,-381 296,-381 296,-381 296,-234 296,-192.99 284.77,-146.59 276.54,-118.06"/>
<polygon fill="black" stroke="black" points="279.87,-116.98 273.67,-108.4 273.16,-118.98 279.87,-116.98"/>
</g>
<!-- dtor -->
<g id="node4" class="node">
<title>dtor</title>
<polygon fill="none" stroke="black" points="350.5,-36 185.5,-36 185.5,0 350.5,0 350.5,-36"/>
<text text-anchor="middle" x="268" y="-14.3" font-family="Times New Roman,serif" font-size="14.00">line_sender::~line_sender()</text>
</g>
<!-- line_sender&#45;&gt;dtor -->
<g id="edge4" class="edge">
<title>line_sender&#45;&gt;dtor</title>
<path fill="none" stroke="black" d="M305.95,-505.71C320.01,-479.58 344,-428.1 344,-381 344,-381 344,-381 344,-161 344,-120.55 344.96,-107.18 325,-72 318.75,-60.98 309.43,-50.93 300.13,-42.6"/>
<polygon fill="black" stroke="black" points="302.28,-39.84 292.39,-36.04 297.76,-45.18 302.28,-39.84"/>
</g>
<!-- symbol -->
<g id="node5" class="node">
<title>symbol</title>
<polygon fill="none" stroke="black" points="174,-398 38,-398 38,-362 174,-362 174,-398"/>
<text text-anchor="middle" x="106" y="-376.3" font-family="Times New Roman,serif" font-size="14.00">.symbol(name, value)</text>
</g>
<!-- table&#45;&gt;symbol -->
<g id="edge5" class="edge">
<title>table&#45;&gt;symbol</title>
<path fill="none" stroke="black" d="M192.11,-433.88C177.21,-424.72 158.67,-413.34 142.62,-403.48"/>
<polygon fill="black" stroke="black" points="144.35,-400.44 133.99,-398.19 140.69,-406.41 144.35,-400.44"/>
</g>
<!-- column -->
<g id="node6" class="node">
<title>column</title>
<polygon fill="none" stroke="black" points="136,-326 0,-326 0,-290 136,-290 136,-326"/>
<text text-anchor="middle" x="68" y="-304.3" font-family="Times New Roman,serif" font-size="14.00">.column(name, value)</text>
</g>
<!-- table&#45;&gt;column -->
<g id="edge9" class="edge">
<title>table&#45;&gt;column</title>
<path fill="none" stroke="black" d="M177.15,-445.17C126.51,-437.29 46.86,-421.49 29,-398 14.17,-378.49 28.72,-352.47 44.09,-333.61"/>
<polygon fill="black" stroke="black" points="46.77,-335.86 50.64,-326 41.47,-331.29 46.77,-335.86"/>
</g>
<!-- close&#45;&gt;close -->
<g id="edge17" class="edge">
<title>close&#45;&gt;close</title>
<path fill="none" stroke="black" d="M297.69,-103.5C307.58,-103.5 315.5,-99 315.5,-90 315.5,-84.38 312.41,-80.51 307.67,-78.4"/>
<polygon fill="black" stroke="black" points="308.17,-74.93 297.69,-76.5 306.86,-81.81 308.17,-74.93"/>
</g>
<!-- close&#45;&gt;dtor -->
<g id="edge3" class="edge">
<title>close&#45;&gt;dtor</title>
<path fill="none" stroke="black" d="M268,-71.7C268,-63.98 268,-54.71 268,-46.11"/>
<polygon fill="black" stroke="black" points="271.5,-46.1 268,-36.1 264.5,-46.1 271.5,-46.1"/>
</g>
<!-- symbol&#45;&gt;symbol -->
<g id="edge6" class="edge">
<title>symbol&#45;&gt;symbol</title>
<path fill="none" stroke="black" d="M174.13,-392.37C184.76,-390.52 192,-386.4 192,-380 192,-375.9 189.03,-372.74 184.1,-370.5"/>
<polygon fill="black" stroke="black" points="184.71,-367.04 174.13,-367.63 182.77,-373.76 184.71,-367.04"/>
</g>
<!-- symbol&#45;&gt;column -->
<g id="edge7" class="edge">
<title>symbol&#45;&gt;column</title>
<path fill="none" stroke="black" d="M96.61,-361.7C92.24,-353.64 86.94,-343.89 82.1,-334.98"/>
<polygon fill="black" stroke="black" points="85.13,-333.22 77.29,-326.1 78.98,-336.56 85.13,-333.22"/>
</g>
<!-- at -->
<g id="node7" class="node">
<title>at</title>
<polygon fill="none" stroke="black" points="230,-254 134,-254 134,-216 230,-216 230,-254"/>
<text text-anchor="middle" x="182" y="-238.8" font-family="Times New Roman,serif" font-size="14.00">.at(timestamp)</text>
<text text-anchor="middle" x="182" y="-223.8" font-family="Times New Roman,serif" font-size="14.00">.at_now()</text>
</g>
<!-- symbol&#45;&gt;at -->
<g id="edge8" class="edge">
<title>symbol&#45;&gt;at</title>
<path fill="none" stroke="black" d="M130.41,-361.97C141.99,-352.64 155.01,-340.11 163,-326 173.72,-307.06 178.41,-282.79 180.45,-264.22"/>
<polygon fill="black" stroke="black" points="183.96,-264.31 181.37,-254.03 176.99,-263.68 183.96,-264.31"/>
</g>
<!-- column&#45;&gt;column -->
<g id="edge10" class="edge">
<title>column&#45;&gt;column</title>
<path fill="none" stroke="black" d="M136.13,-320.37C146.76,-318.52 154,-314.4 154,-308 154,-303.9 151.03,-300.74 146.1,-298.5"/>
<polygon fill="black" stroke="black" points="146.71,-295.04 136.13,-295.63 144.77,-301.76 146.71,-295.04"/>
</g>
<!-- column&#45;&gt;at -->
<g id="edge11" class="edge">
<title>column&#45;&gt;at</title>
<path fill="none" stroke="black" d="M95.31,-289.99C109.98,-280.86 128.29,-269.45 144.3,-259.48"/>
<polygon fill="black" stroke="black" points="146.29,-262.37 152.92,-254.11 142.59,-256.42 146.29,-262.37"/>
</g>
<!-- at&#45;&gt;table -->
<g id="edge15" class="edge">
<title>at&#45;&gt;table</title>
<path fill="none" stroke="black" d="M185.22,-254.22C191.9,-292.01 207.29,-379.11 215.17,-423.67"/>
<polygon fill="black" stroke="black" points="211.77,-424.53 216.95,-433.77 218.66,-423.31 211.77,-424.53"/>
</g>
<!-- flush -->
<g id="node8" class="node">
<title>flush</title>
<polygon fill="none" stroke="black" points="258,-180 202,-180 202,-144 258,-144 258,-180"/>
<text text-anchor="middle" x="230" y="-158.3" font-family="Times New Roman,serif" font-size="14.00">.flush()</text>
</g>
<!-- at&#45;&gt;flush -->
<g id="edge12" class="edge">
<title>at&#45;&gt;flush</title>
<path fill="none" stroke="black" d="M194.36,-215.72C200,-207.37 206.78,-197.35 212.9,-188.3"/>
<polygon fill="black" stroke="black" points="215.8,-190.25 218.5,-180 210,-186.33 215.8,-190.25"/>
</g>
<!-- flush&#45;&gt;table -->
<g id="edge16" class="edge">
<title>flush&#45;&gt;table</title>
<path fill="none" stroke="black" d="M233.65,-180.09C235.68,-190.43 237.98,-203.91 239,-216 245.35,-291.36 232.64,-380.35 225.07,-424.04"/>
<polygon fill="black" stroke="black" points="221.62,-423.44 223.32,-433.89 228.52,-424.66 221.62,-423.44"/>
</g>
<!-- flush&#45;&gt;close -->
<g id="edge13" class="edge">
<title>flush&#45;&gt;close</title>
<path fill="none" stroke="black" d="M239.39,-143.7C243.76,-135.64 249.06,-125.89 253.9,-116.98"/>
<polygon fill="black" stroke="black" points="257.02,-118.56 258.71,-108.1 250.87,-115.22 257.02,-118.56"/>
</g>
<!-- flush&#45;&gt;dtor -->
<g id="edge14" class="edge">
<title>flush&#45;&gt;dtor</title>
<path fill="none" stroke="black" d="M226.95,-143.79C224.4,-125.5 222.29,-95.98 230,-72 233.19,-62.08 239,-52.44 245.13,-44.17"/>
<polygon fill="black" stroke="black" points="248.07,-46.09 251.54,-36.08 242.58,-41.74 248.07,-46.09"/>
</g>
</g>
</svg>
