<?xml version="1.0" encoding="UTF-8" standalone="no"?>
<!DOCTYPE svg PUBLIC "-//W3C//DTD SVG 1.1//EN"
 "http://www.w3.org/Graphics/SVG/1.1/DTD/svg11.dtd">
<!-- Generated by graphviz version 3.0.0 (20220226.1711)
 -->
<!-- Title: line_sender_c_api Pages: 1 -->
<svg width="312pt" height="404pt"
 viewBox="0.00 0.00 311.50 404.00" xmlns="http://www.w3.org/2000/svg" xmlns:xlink="http://www.w3.org/1999/xlink">
<g id="graph0" class="graph" transform="scale(1 1) rotate(0) translate(4 400)">
<title>line_sender_c_api</title>
<!-- new -->
<g id="node1" class="node">
<title>new</title>
<polygon fill="#343942" stroke="black" points="283.5,-396 85.5,-396 85.5,-360 283.5,-360 283.5,-396"/>
<text text-anchor="middle" x="184.5" y="-374.3" font-family="monospace" font-size="14.00" fill="#c9d1d9">new line_sender_buffer</text>
</g>
<!-- table -->
<g id="node2" class="node">
<title>table</title>
<polygon fill="#343942" stroke="black" points="234,-324 135,-324 135,-288 234,-288 234,-324"/>
<text text-anchor="middle" x="184.5" y="-302.3" font-family="monospace" font-size="14.00" fill="#c9d1d9">.table(..)</text>
</g>
<!-- new&#45;&gt;table -->
<g id="edge1" class="edge">
<title>new&#45;&gt;table</title>
<path fill="none" stroke="#343942" d="M184.5,-359.7C184.5,-351.98 184.5,-342.71 184.5,-334.11"/>
<polygon fill="#343942" stroke="#343942" points="188,-334.1 184.5,-324.1 181,-334.1 188,-334.1"/>
</g>
<!-- symbol -->
<g id="node3" class="node">
<title>symbol</title>
<polygon fill="#343942" stroke="black" points="188,-252 81,-252 81,-216 188,-216 188,-252"/>
<text text-anchor="middle" x="134.5" y="-230.3" font-family="monospace" font-size="14.00" fill="#c9d1d9">.symbol(..)</text>
</g>
<!-- table&#45;&gt;symbol -->
<g id="edge2" class="edge">
<title>table&#45;&gt;symbol</title>
<path fill="none" stroke="#343942" d="M172.14,-287.7C166.27,-279.47 159.13,-269.48 152.66,-260.42"/>
<polygon fill="#343942" stroke="#343942" points="155.38,-258.21 146.72,-252.1 149.68,-262.28 155.38,-258.21"/>
</g>
<!-- column -->
<g id="node4" class="node">
<title>column</title>
<polygon fill="#343942" stroke="black" points="107,-180 0,-180 0,-144 107,-144 107,-180"/>
<text text-anchor="middle" x="53.5" y="-158.3" font-family="monospace" font-size="14.00" fill="#c9d1d9">.column(..)</text>
</g>
<!-- table&#45;&gt;column -->
<g id="edge6" class="edge">
<title>table&#45;&gt;column</title>
<path fill="none" stroke="#343942" d="M134.87,-292.83C112.32,-284.83 87.23,-272.02 71.5,-252 57.84,-234.61 53.75,-209.56 52.84,-190.47"/>
<polygon fill="#343942" stroke="#343942" points="56.33,-190.21 52.62,-180.29 49.33,-190.36 56.33,-190.21"/>
</g>
<!-- symbol&#45;&gt;symbol -->
<g id="edge3" class="edge">
<title>symbol&#45;&gt;symbol</title>
<path fill="none" stroke="#343942" d="M188.13,-246.9C198.58,-245.4 206,-241.1 206,-234 206,-229.45 202.96,-226.05 198.02,-223.8"/>
<polygon fill="#343942" stroke="#343942" points="198.7,-220.36 188.13,-221.1 196.86,-227.11 198.7,-220.36"/>
</g>
<!-- symbol&#45;&gt;column -->
<g id="edge4" class="edge">
<title>symbol&#45;&gt;column</title>
<path fill="none" stroke="#343942" d="M114.48,-215.7C104.37,-206.97 91.96,-196.24 80.98,-186.75"/>
<polygon fill="#343942" stroke="#343942" points="83.15,-183.99 73.29,-180.1 78.57,-189.29 83.15,-183.99"/>
</g>
<!-- at -->
<g id="node5" class="node">
<title>at</title>
<polygon fill="#343942" stroke="black" points="244.5,-108 62.5,-108 62.5,-72 244.5,-72 244.5,-108"/>
<text text-anchor="middle" x="153.5" y="-86.3" font-family="monospace" font-size="14.00" fill="#c9d1d9">.at(..) or .at_now()</text>
</g>
<!-- symbol&#45;&gt;at -->
<g id="edge5" class="edge">
<title>symbol&#45;&gt;at</title>
<path fill="none" stroke="#343942" d="M136.79,-215.87C140.03,-191.67 145.98,-147.21 149.83,-118.39"/>
<polygon fill="#343942" stroke="#343942" points="153.34,-118.57 151.2,-108.19 146.4,-117.64 153.34,-118.57"/>
</g>
<!-- column&#45;&gt;column -->
<g id="edge7" class="edge">
<title>column&#45;&gt;column</title>
<path fill="none" stroke="#343942" d="M107.13,-174.9C117.58,-173.4 125,-169.1 125,-162 125,-157.45 121.96,-154.05 117.02,-151.8"/>
<polygon fill="#343942" stroke="#343942" points="117.7,-148.36 107.13,-149.1 115.86,-155.11 117.7,-148.36"/>
</g>
<!-- column&#45;&gt;at -->
<g id="edge8" class="edge">
<title>column&#45;&gt;at</title>
<path fill="none" stroke="#343942" d="M77.96,-143.88C90.8,-134.89 106.7,-123.76 120.59,-114.03"/>
<polygon fill="#343942" stroke="#343942" points="122.76,-116.79 128.94,-108.19 118.74,-111.06 122.76,-116.79"/>
</g>
<!-- at&#45;&gt;table -->
<g id="edge10" class="edge">
<title>at&#45;&gt;table</title>
<path fill="none" stroke="#343942" d="M165.29,-108.23C180.41,-131.47 205.83,-174.73 215.5,-216 219.15,-231.58 219.68,-236.56 215.5,-252 212.92,-261.52 208.16,-271.08 203.12,-279.41"/>
<polygon fill="#343942" stroke="#343942" points="200.12,-277.61 197.65,-287.91 206.01,-281.4 200.12,-277.61"/>
</g>
<!-- sender_flush -->
<g id="node6" class="node">
<title>sender_flush</title>
<polygon fill="#343942" stroke="black" points="303.5,-36 121.5,-36 121.5,0 303.5,0 303.5,-36"/>
<text text-anchor="middle" x="212.5" y="-14.3" font-family="monospace" font-size="14.00" fill="#c9d1d9">sender.flush(buffer)</text>
</g>
<!-- at&#45;&gt;sender_flush -->
<g id="edge9" class="edge">
<title>at&#45;&gt;sender_flush</title>
<path fill="none" stroke="#343942" d="M168.08,-71.7C175.16,-63.3 183.78,-53.07 191.55,-43.86"/>
<polygon fill="#343942" stroke="#343942" points="194.31,-46.01 198.08,-36.1 188.96,-41.49 194.31,-46.01"/>
</g>
<!-- sender_flush&#45;&gt;table -->
<g id="edge11" class="edge">
<title>sender_flush&#45;&gt;table</title>
<path fill="none" stroke="#343942" d="M230.67,-36.32C239.38,-45.9 248.91,-58.57 253.5,-72 258.67,-87.14 254.77,-92.05 253.5,-108 248.37,-172.61 257.91,-193.27 230.5,-252 225.74,-262.21 218.41,-271.95 211,-280.24"/>
<polygon fill="#343942" stroke="#343942" points="208.27,-278.04 203.95,-287.71 213.36,-282.84 208.27,-278.04"/>
</g>
</g>
</svg>
