<?xml version="1.0" encoding="UTF-8" standalone="no"?>
<!DOCTYPE svg PUBLIC "-//W3C//DTD SVG 1.1//EN"
 "http://www.w3.org/Graphics/SVG/1.1/DTD/svg11.dtd">
<!-- Generated by graphviz version 14.1.2 (0)
 -->
<!-- Title: line_sender_c_api Pages: 1 -->
<svg width="284pt" height="425pt"
 viewBox="0.00 0.00 284.00 425.00" xmlns="http://www.w3.org/2000/svg" xmlns:xlink="http://www.w3.org/1999/xlink">
<g id="graph0" class="graph" transform="scale(1 1) rotate(0) translate(4 421.25)">
<title>line_sender_c_api</title>
<!-- new -->
<g id="node1" class="node">
<title>new</title>
<polygon fill="#343942" stroke="black" points="276.25,-417.25 78.75,-417.25 78.75,-381.25 276.25,-381.25 276.25,-417.25"/>
<text xml:space="preserve" text-anchor="middle" x="177.5" y="-394.57" font-family="monospace" font-size="14.00" fill="#c9d1d9">new line_sender_buffer</text>
</g>
<!-- table -->
<g id="node2" class="node">
<title>table</title>
<polygon fill="#343942" stroke="black" points="226.75,-344.25 128.25,-344.25 128.25,-308.25 226.75,-308.25 226.75,-344.25"/>
<text xml:space="preserve" text-anchor="middle" x="177.5" y="-321.57" font-family="monospace" font-size="14.00" fill="#c9d1d9">.table(..)</text>
</g>
<!-- new&#45;&gt;table -->
<g id="edge1" class="edge">
<title>new&#45;&gt;table</title>
<path fill="none" stroke="#343942" d="M177.5,-381.06C177.5,-373.48 177.5,-364.35 177.5,-355.79"/>
<polygon fill="#343942" stroke="#343942" points="181,-355.79 177.5,-345.79 174,-355.79 181,-355.79"/>
</g>
<!-- symbol -->
<g id="node3" class="node">
<title>symbol</title>
<polygon fill="#343942" stroke="black" points="156.88,-271.25 50.12,-271.25 50.12,-235.25 156.88,-235.25 156.88,-271.25"/>
<text xml:space="preserve" text-anchor="middle" x="103.5" y="-248.57" font-family="monospace" font-size="14.00" fill="#c9d1d9">.symbol(..)</text>
</g>
<!-- table&#45;&gt;symbol -->
<g id="edge2" class="edge">
<title>table&#45;&gt;symbol</title>
<path fill="none" stroke="#343942" d="M159.59,-308.06C150.65,-299.49 139.68,-288.96 129.81,-279.49"/>
<polygon fill="#343942" stroke="#343942" points="132.24,-276.97 122.6,-272.57 127.39,-282.02 132.24,-276.97"/>
</g>
<!-- column -->
<g id="node4" class="node">
<title>column</title>
<polygon fill="#343942" stroke="black" points="193.88,-182 87.12,-182 87.12,-146 193.88,-146 193.88,-182"/>
<text xml:space="preserve" text-anchor="middle" x="140.5" y="-159.32" font-family="monospace" font-size="14.00" fill="#c9d1d9">.column(..)</text>
</g>
<!-- table&#45;&gt;column -->
<g id="edge6" class="edge">
<title>table&#45;&gt;column</title>
<path fill="none" stroke="#343942" d="M184.54,-307.95C193.64,-282.72 206.31,-235.02 188.5,-200 186.61,-196.29 184.13,-192.88 181.28,-189.76"/>
<polygon fill="#343942" stroke="#343942" points="183.9,-187.42 174.17,-183.24 179.17,-192.58 183.9,-187.42"/>
</g>
<!-- symbol&#45;&gt;symbol -->
<g id="edge3" class="edge">
<title>symbol&#45;&gt;symbol</title>
<path fill="none" stroke="#343942" d="M157.35,-259.77C167.61,-258.99 174.88,-256.81 174.88,-253.25 174.88,-251.19 172.45,-249.59 168.42,-248.46"/>
<polygon fill="#343942" stroke="#343942" points="169.26,-245.05 158.84,-246.97 168.18,-251.97 169.26,-245.05"/>
</g>
<!-- symbol&#45;&gt;column -->
<g id="edge4" class="edge">
<title>symbol&#45;&gt;column</title>
<path fill="none" stroke="#343942" d="M97.53,-235.02C94.89,-224.44 93.4,-210.89 98.5,-200 100.16,-196.45 102.38,-193.14 104.93,-190.08"/>
<polygon fill="#343942" stroke="#343942" points="107.19,-192.77 111.74,-183.21 102.22,-187.84 107.19,-192.77"/>
</g>
<!-- at -->
<g id="node5" class="node">
<title>at</title>
<polygon fill="#343942" stroke="black" points="181,-109 0,-109 0,-73 181,-73 181,-109"/>
<text xml:space="preserve" text-anchor="middle" x="90.5" y="-86.33" font-family="monospace" font-size="14.00" fill="#c9d1d9">.at(..) or .at_now()</text>
</g>
<!-- symbol&#45;&gt;at -->
<g id="edge5" class="edge">
<title>symbol&#45;&gt;at</title>
<path fill="none" stroke="#343942" d="M95.4,-234.8C89.39,-220.86 81.72,-200.62 78.5,-182 75.78,-166.23 76.75,-161.9 78.5,-146 79.43,-137.56 81.14,-128.52 82.99,-120.29"/>
<polygon fill="#343942" stroke="#343942" points="86.34,-121.36 85.28,-110.82 79.53,-119.72 86.34,-121.36"/>
</g>
<!-- column&#45;&gt;symbol -->
<g id="edge7" class="edge">
<title>column&#45;&gt;symbol</title>
<path fill="none" stroke="#343942" d="M128.46,-182.29C125,-187.78 121.43,-193.99 118.75,-200 115.38,-207.54 112.54,-216.01 110.25,-223.91"/>
<polygon fill="#343942" stroke="#343942" points="106.91,-222.86 107.7,-233.43 113.67,-224.68 106.91,-222.86"/>
<text xml:space="preserve" text-anchor="middle" x="153.62" y="-203.95" font-family="Times,serif" font-size="14.00">QWP only</text>
</g>
<!-- column&#45;&gt;column -->
<g id="edge8" class="edge">
<title>column&#45;&gt;column</title>
<path fill="none" stroke="#343942" d="M194.35,-170.52C204.61,-169.74 211.88,-167.56 211.88,-164 211.88,-161.94 209.45,-160.34 205.42,-159.21"/>
<polygon fill="#343942" stroke="#343942" points="206.26,-155.8 195.84,-157.72 205.18,-162.72 206.26,-155.8"/>
</g>
<!-- column&#45;&gt;at -->
<g id="edge9" class="edge">
<title>column&#45;&gt;at</title>
<path fill="none" stroke="#343942" d="M128.4,-145.81C122.56,-137.53 115.44,-127.41 108.95,-118.19"/>
<polygon fill="#343942" stroke="#343942" points="111.98,-116.43 103.36,-110.27 106.26,-120.46 111.98,-116.43"/>
</g>
<!-- at&#45;&gt;table -->
<g id="edge11" class="edge">
<title>at&#45;&gt;table</title>
<path fill="none" stroke="#343942" d="M77.08,-109.34C52.61,-143.23 6.35,-219.47 41.5,-271.25 58.51,-296.3 89.15,-309.73 117.06,-316.93"/>
<polygon fill="#343942" stroke="#343942" points="115.98,-320.27 126.51,-319.14 117.57,-313.45 115.98,-320.27"/>
</g>
<!-- sender_flush -->
<g id="node6" class="node">
<title>sender_flush</title>
<polygon fill="#343942" stroke="black" points="271,-36 90,-36 90,0 271,0 271,-36"/>
<text xml:space="preserve" text-anchor="middle" x="180.5" y="-13.32" font-family="monospace" font-size="14.00" fill="#c9d1d9">sender.flush(buffer)</text>
</g>
<!-- at&#45;&gt;sender_flush -->
<g id="edge10" class="edge">
<title>at&#45;&gt;sender_flush</title>
<path fill="none" stroke="#343942" d="M112.29,-72.81C123.48,-63.98 137.31,-53.07 149.59,-43.39"/>
<polygon fill="#343942" stroke="#343942" points="151.73,-46.15 157.41,-37.21 147.4,-40.66 151.73,-46.15"/>
</g>
<!-- sender_flush&#45;&gt;table -->
<g id="edge12" class="edge">
<title>sender_flush&#45;&gt;table</title>
<path fill="none" stroke="#343942" d="M207.34,-36.43C223.32,-49.11 240.5,-67.89 240.5,-90 240.5,-254.25 240.5,-254.25 240.5,-254.25 240.5,-272.81 228.31,-288.78 214.65,-300.85"/>
<polygon fill="#343942" stroke="#343942" points="212.77,-297.86 207.22,-306.89 217.19,-303.29 212.77,-297.86"/>
</g>
</g>
</svg>
